<?xml version="1.0" encoding="UTF-8" standalone="no"?>
<svg
   xmlns:dc="http://purl.org/dc/elements/1.1/"
   xmlns:cc="http://creativecommons.org/ns#"
   xmlns:rdf="http://www.w3.org/1999/02/22-rdf-syntax-ns#"
   xmlns:svg="http://www.w3.org/2000/svg"
   xmlns="http://www.w3.org/2000/svg"
   id="svg22"
   xml:space="preserve"
   viewBox="0 0 1024 768"
   y="0px"
   x="0px"
   version="1.1"><metadata
     id="metadata28"><rdf:RDF><cc:Work
         rdf:about=""><dc:format>image/svg+xml</dc:format><dc:type
           rdf:resource="http://purl.org/dc/dcmitype/StillImage" /></cc:Work></rdf:RDF></metadata><defs
     id="defs26" /><g
     style="stroke-width:0;stroke-miterlimit:2"
     transform="matrix(1.987,0,0,1.987,-505.36,-379.02)"
     stroke-miterlimit="2"
     id="logo-group"><path
       d="m 405.77,544.8 h 10.076 v -1.5974 h -8.3149 v -4.9766 h 7.4342 v -1.5974 h -7.4342 v -4.567 h 7.8848 v -1.59 h -9.6461 z"
       style="font-variant-ligatures:none"
       id="path674034" /><path
       d="m 418.29,544.8 4.8333,-6.4102 4.8128,6.4102 h 2.1914 l -5.8982,-7.5571 5.0176,-6.7789 h -2.1914 l -3.9322,5.5296 -3.9526,-5.5296 h -2.1709 l 5.0381,6.7789 -5.9187,7.5571 z"
       style="font-variant-ligatures:none"
       id="path674036" /><path
       d="m 445.98,540.82 h -2.2323 c -1.0854,1.5565 -2.9901,2.6214 -5.12,2.6214 -3.3997,0 -6.144,-2.601 -6.144,-5.8163 0,-3.2154 2.7443,-5.8163 6.144,-5.8163 1.9661,0 3.6864,0.88064 4.8128,2.2323 h 2.3347 c -1.4336,-2.2733 -4.0755,-3.8298 -7.1475,-3.8298 -4.5056,0 -8.151,3.3382 -8.151,7.4138 0,4.0755 3.6454,7.4138 8.151,7.4138 3.2358,0 6.0416,-1.7408 7.3523,-4.2189 z"
       style="font-variant-ligatures:none"
       id="path674038" /><path
       d="m 447.21,544.8 h 10.076 v -1.5974 h -8.3149 v -4.9766 h 7.4342 v -1.5974 h -7.4342 v -4.567 h 7.8848 v -1.59 h -9.6461 z"
       style="font-variant-ligatures:none"
       id="path674040" /><path
       d="m 458.69,544.8 h 10.076 v -1.5974 h -8.3149 v -4.9766 h 7.4342 v -1.5974 h -7.4342 v -4.567 h 7.8848 v -1.59 h -9.6461 z"
       style="font-variant-ligatures:none"
       id="path674042" /><path
       d="m 475.41,530.46 h -5.2429 v 14.336 h 5.2429 c 1.4336,0 2.7648,-0.32768 3.9526,-0.98304 1.2288,-0.63488 2.1709,-1.5155 2.8877,-2.601 0.69632,-1.0854 1.0445,-2.2938 1.0445,-3.584 0,-1.2902 -0.34816,-2.519 -1.0445,-3.6045 -0.7168,-1.0854 -1.6589,-1.9456 -2.8877,-2.601 -1.1878,-0.63488 -2.519,-0.96256 -3.9526,-0.96256 z m -3.5021,12.739 v -11.141 h 3.5021 c 1.0854,0 2.0685,0.22528 2.9696,0.73728 0.88064,0.49152 1.5974,1.1674 2.1504,2.0275 0.512,0.86016 0.77824,1.7818 0.77824,2.8058 0,1.024 -0.26624,1.9251 -0.77824,2.7853 -0.55296,0.86016 -1.2698,1.536 -2.1504,2.0275 -0.90112,0.512 -1.8842,0.75776 -2.9696,0.75776 z"
       style="font-variant-ligatures:none"
       id="path674044" /><path
       d="m 498.37,538.43 0.2048,-0.3072 5.4886,-7.6595 h -2.1914 l -4.3827,6.1235 -4.3827,-6.1235 h -2.1914 l 5.4682,7.6595 0.22528,0.3072 v 6.3693 h 1.7613 z"
       style="font-variant-ligatures:none"
       id="path674046" /><path
       d="m 512.46,545.04 c 1.4541,0 2.8467,-0.34816 4.0755,-1.0035 1.2698,-0.65536 2.2528,-1.577 2.9696,-2.7034 0.7168,-1.1469 1.0854,-2.3757 1.0854,-3.7069 0,-1.3312 -0.36864,-2.5805 -1.0854,-3.7274 -0.7168,-1.1264 -1.6998,-2.0275 -2.9696,-2.6829 -1.2288,-0.65536 -2.6214,-1.0035 -4.0755,-1.0035 -1.4746,0 -2.8467,0.34816 -4.0755,1.0035 -1.2698,0.65536 -2.2528,1.5565 -2.9696,2.6829 -0.73728,1.1469 -1.1059,2.3962 -1.1059,3.7274 0,1.3312 0.36864,2.56 1.1059,3.7069 0.7168,1.1264 1.6998,2.048 2.9696,2.7034 1.2288,0.65536 2.601,1.0035 4.0755,1.0035 z m -6.144,-7.4138 c 0,-1.065 0.28672,-2.007 0.8192,-2.9082 0.57344,-0.90112 1.3107,-1.5974 2.2528,-2.1299 0.9216,-0.512 1.9456,-0.77824 3.072,-0.77824 1.1059,0 2.1299,0.26624 3.0925,0.77824 0.94208,0.53248 1.6794,1.2288 2.2323,2.1299 0.53248,0.90112 0.79872,1.8432 0.79872,2.9082 0,1.065 -0.26624,2.007 -0.79872,2.9082 -0.55296,0.90112 -1.2902,1.5974 -2.2323,2.1094 -0.96256,0.53248 -1.9866,0.79872 -3.0925,0.79872 -1.1264,0 -2.1504,-0.26624 -3.072,-0.79872 -0.94208,-0.512 -1.6794,-1.2083 -2.2528,-2.1094 -0.53248,-0.90112 -0.8192,-1.8432 -0.8192,-2.9082 z"
       style="font-variant-ligatures:none"
       id="path674048" /><path
       d="m 534.13,540.03 v -9.57 h -1.7408 v 9.5642 c 0,0.6144 -0.2048,1.1878 -0.59392,1.6998 -0.38912,0.55296 -0.90112,0.96256 -1.577,1.2698 -0.67584,0.28672 -1.4131,0.45056 -2.2118,0.45056 -0.79872,0 -1.5155,-0.16384 -2.1914,-0.45056 -0.67584,-0.3072 -1.1878,-0.7168 -1.5974,-1.2698 -0.38912,-0.512 -0.59392,-1.0854 -0.59392,-1.6998 v -9.56 h -1.7408 v 9.5642 c 0,0.88064 0.28672,1.7203 0.8192,2.4986 0.55296,0.77824 1.2902,1.3722 2.2323,1.8432 0.94208,0.45056 1.9661,0.67584 3.072,0.67584 1.1264,0 2.1299,-0.22528 3.072,-0.67584 0.96256,-0.47104 1.6998,-1.065 2.2323,-1.8432 0.57344,-0.77824 0.8192,-1.6179 0.8192,-2.4986 z"
       style="font-variant-ligatures:none"
       id="path674050" /><path
       d="m 537.81,538.43 h 3.6454 l 4.0141,6.3693 h 1.9661 l -4.096,-6.5126 c 0.94208,-0.22528 1.7203,-0.69632 2.3347,-1.4131 0.57344,-0.7168 0.90112,-1.536 0.90112,-2.4371 0,-0.7168 -0.2048,-1.3722 -0.6144,-1.9866 -0.38912,-0.6144 -0.90112,-1.0854 -1.577,-1.4541 -0.67584,-0.34816 -1.3926,-0.53248 -2.2118,-0.53248 h -6.1235 v 14.336 h 1.7613 z m 0,-1.5974 v -4.7718 h 4.3622 c 0.7168,0 1.3517,0.22528 1.8637,0.69632 0.512,0.45056 0.77824,1.024 0.77824,1.6794 0,0.67584 -0.26624,1.2493 -0.77824,1.6998 -0.49152,0.45056 -1.1469,0.69632 -1.8637,0.69632 z"
       style="font-variant-ligatures:none"
       id="path674052" /><path
       d="m 557.73,532.33 8.7654,12.472 h 2.601 v -14.336 h -1.7408 v 12.472 l -8.75,-12.47 h -2.6419 v 14.336 h 1.7613 z"
       style="font-variant-ligatures:none"
       id="path674054" /><path
       d="m 571.13,544.8 h 10.076 v -1.5974 h -8.3149 v -4.9766 h 7.4342 v -1.5974 h -7.4342 v -4.567 h 7.8848 v -1.59 h -9.6461 z"
       style="font-variant-ligatures:none"
       id="path674056" /><path
       d="m 582.61,544.8 h 10.076 v -1.5974 h -8.3149 v -4.9766 h 7.4342 v -1.5974 h -7.4342 v -4.567 h 7.8848 v -1.59 h -9.6461 z"
       style="font-variant-ligatures:none"
       id="path674058" /><path
       d="m 599.33,530.46 h -5.2429 v 14.336 h 5.2429 c 1.4336,0 2.7648,-0.32768 3.9526,-0.98304 1.2288,-0.63488 2.1709,-1.5155 2.8877,-2.601 0.69632,-1.0854 1.0445,-2.2938 1.0445,-3.584 0,-1.2902 -0.34816,-2.519 -1.0445,-3.6045 -0.7168,-1.0854 -1.6589,-1.9456 -2.8877,-2.601 -1.1878,-0.63488 -2.519,-0.96256 -3.9526,-0.96256 z m -3.5021,12.739 v -11.141 h 3.5021 c 1.0854,0 2.0685,0.22528 2.9696,0.73728 0.88064,0.49152 1.5974,1.1674 2.1504,2.0275 0.512,0.86016 0.77824,1.7818 0.77824,2.8058 0,1.024 -0.26624,1.9251 -0.77824,2.7853 -0.55296,0.86016 -1.2698,1.536 -2.1504,2.0275 -0.90112,0.512 -1.8842,0.75776 -2.9696,0.75776 z"
       style="font-variant-ligatures:none"
       id="path674060" /><path
       d="m 612.85,545.04 c 1.0445,0 1.9661,-0.18432 2.7853,-0.57344 0.79872,-0.36864 1.4746,-0.86016 1.9251,-1.5155 0.45056,-0.67584 0.67584,-1.3926 0.67584,-2.1914 0,-0.77824 -0.22528,-1.4336 -0.63488,-1.9456 -0.4096,-0.49152 -0.94208,-0.88064 -1.5155,-1.1674 -0.59392,-0.28672 -1.3722,-0.57344 -2.3552,-0.90112 -0.77824,-0.24576 -1.3926,-0.49152 -1.8637,-0.69632 -0.45056,-0.18432 -0.83968,-0.43008 -1.1059,-0.75776 -0.3072,-0.28672 -0.47104,-0.67584 -0.47104,-1.1264 0,-0.43008 0.14336,-0.8192 0.4096,-1.1878 0.24576,-0.34816 0.63488,-0.63488 1.1264,-0.83968 0.512,-0.22528 1.0854,-0.32768 1.7203,-0.32768 0.63488,0 1.2083,0.1024 1.6589,0.32768 0.45056,0.2048 0.88064,0.512 1.2493,0.9216 l 1.3312,-1.0445 c -0.47104,-0.49152 -1.024,-0.9216 -1.6589,-1.2698 -0.65536,-0.34816 -1.536,-0.53248 -2.6624,-0.53248 -1.0445,0 -1.9046,0.18432 -2.6829,0.55296 -0.75776,0.36864 -1.3722,0.86016 -1.7818,1.495 -0.43008,0.63488 -0.63488,1.3517 -0.63488,2.1299 0,0.77824 0.18432,1.4336 0.6144,1.9251 0.4096,0.49152 0.90112,0.90112 1.495,1.1469 0.57344,0.26624 1.3517,0.53248 2.2938,0.83968 0.75776,0.26624 1.3722,0.47104 1.8432,0.65536 0.43008,0.18432 0.8192,0.45056 1.1059,0.75776 0.28672,0.32768 0.45056,0.7168 0.45056,1.1878 0,0.47104 -0.14336,0.90112 -0.43008,1.2902 -0.26624,0.36864 -0.65536,0.69632 -1.1469,0.90112 -0.512,0.22528 -1.0854,0.34816 -1.7408,0.34816 -0.67584,0 -1.2902,-0.14336 -1.8842,-0.4096 -0.59392,-0.24576 -1.0445,-0.63488 -1.3722,-1.1264 l -1.577,1.1674 c 0.43008,0.63488 1.1264,1.1059 2.007,1.4336 0.90112,0.34816 1.8432,0.53248 2.8262,0.53248 z"
       style="font-variant-ligatures:none"
       id="path674062" /><path
       d="m 411.54,346.08 c 5.94,3.24 12.42,4.68 19.26,4.68 11.16,0 19.8,-3.06 25.56,-9.54 5.76,-6.3 8.64,-15.84 8.64,-28.44 v -88.92 h -55.62 v 8.28 h 46.44 v 80.64 c 0,10.08 -2.16,17.64 -6.3,22.5 -4.14,4.86 -10.44,7.2 -18.72,7.2 -5.76,0 -10.98,-1.26 -15.66,-3.96 -4.68,-2.7 -8.82,-6.66 -12.24,-11.88 l -5.58,6.12 c 3.6,5.76 8.28,10.08 14.22,13.32 z"
       style="font-variant-ligatures:none"
       id="path674065" /><path
       d="m 527.68,342.48 c 9.9,5.58 21.06,8.28 33.48,8.28 12.24,0 23.4,-2.7 33.48,-8.28 9.9,-5.4 17.64,-13.14 23.4,-22.86 5.76,-9.72 8.64,-20.52 8.64,-32.76 0,-12.06 -2.88,-23.04 -8.64,-32.76 -5.76,-9.72 -13.5,-17.28 -23.4,-22.86 -10.08,-5.4 -21.24,-8.28 -33.48,-8.28 -12.42,0 -23.58,2.88 -33.48,8.46 -10.08,5.58 -17.82,13.14 -23.58,22.86 -5.76,9.72 -8.46,20.7 -8.46,32.58 0,12.06 2.7,22.86 8.46,32.58 5.76,9.72 13.5,17.46 23.58,23.04 z m 62.1,-7.38 c -8.64,4.86 -18.18,7.2 -28.62,7.2 -10.62,0 -20.16,-2.34 -28.8,-7.2 -8.64,-4.68 -15.3,-11.34 -20.16,-19.8 -5.04,-8.46 -7.38,-18 -7.38,-28.44 0,-10.44 2.34,-19.8 7.38,-28.26 4.86,-8.46 11.52,-15.12 20.16,-19.98 8.64,-4.68 18.18,-7.2 28.8,-7.2 10.44,0 19.98,2.52 28.62,7.2 8.46,4.86 15.12,11.52 20.16,19.98 4.86,8.46 7.38,17.82 7.38,28.26 0,10.44 -2.52,19.98 -7.38,28.44 -5.04,8.46 -11.7,15.12 -20.16,19.8 z"
       style="font-variant-ligatures:none"
       id="path674067" /><path
       d="m 489.22,435.18 h -81.54 v 8.1 h 81.54 z m 0,-57.96 h -81.54 v 8.28 h 81.54 z m -81.54,117.72 v 8.28 h 81.54 v -8.28 z"
       style="font-variant-ligatures:none"
       id="path674069" /><path
       d="m 605.52,503.22 h 10.8 l -48.42,-65.16 45,-60.84 H 602.64 L 562.5,431.4 522.36,377.22 h -10.8 l 45,61.02 -48.42,64.98 h 10.8 l 43.2,-58.32 z"
       style="font-variant-ligatures:none;fill:#bf0404"
       id="path674071" /></g></svg>